<svg width="40" height="40" viewBox="0 0 40 40" fill="none" xmlns="http://www.w3.org/2000/svg">
<g clip-path="url(#clip0_10_73)">
<path d="M36.6667 20C36.6667 29.2042 29.2042 36.6667 20 36.6667C10.7959 36.6667 3.33337 29.2042 3.33337 20C3.33337 10.7959 10.7959 3.33337 20 3.33337C29.2042 3.33337 36.6667 10.7959 36.6667 20Z" fill="url(#paint0_linear_10_73)"/>
<path opacity="0.05" d="M26.81 13.4767L18.3334 21.9533L14.0234 17.6433C13.3725 16.9925 12.3175 16.9925 11.6667 17.6433L10.4884 18.8217C9.83754 19.4725 9.83754 20.5275 10.4884 21.1783L17.155 27.845C17.8059 28.4958 18.8609 28.4958 19.5117 27.845L30.345 17.0116C30.9959 16.3608 30.9959 15.3058 30.345 14.655L29.1667 13.4767C28.5159 12.8258 27.4609 12.8258 26.81 13.4767Z" fill="black"/>
<path opacity="0.07" d="M17.4492 27.5508L10.7825 20.8841C10.2942 20.3958 10.2942 19.6041 10.7825 19.1166L11.9608 17.9383C12.4492 17.45 13.2408 17.45 13.7283 17.9383L18.3333 22.5425L27.1042 13.7716C27.5925 13.2833 28.3842 13.2833 28.8717 13.7716L30.05 14.95C30.5383 15.4383 30.5383 16.23 30.05 16.7175L19.2167 27.5508C18.7292 28.0383 17.9375 28.0383 17.4492 27.5508Z" fill="black"/>
<circle cx="20" cy="20" r="20" fill="#FFE600"/>
<path d="M17.7442 27.2558L11.0775 20.5891C10.7517 20.2633 10.7517 19.7358 11.0775 19.4108L12.2558 18.2325C12.5817 17.9066 13.1092 17.9066 13.4342 18.2325L18.3333 23.1316L27.3992 14.0658C27.725 13.74 28.2525 13.74 28.5775 14.0658L29.7558 15.2441C30.0817 15.57 30.0817 16.0975 29.7558 16.4225L18.9225 27.2558C18.5975 27.5816 18.0692 27.5816 17.7442 27.2558Z" fill="white"/>
</g>
<defs>
<linearGradient id="paint0_linear_10_73" x1="8.21504" y1="8.21504" x2="31.785" y2="31.785" gradientUnits="userSpaceOnUse">
<stop stop-color="#21AD64"/>
<stop offset="1" stop-color="#088242"/>
</linearGradient>
<clipPath id="clip0_10_73">
<rect width="40" height="40" fill="white"/>
</clipPath>
</defs>
</svg>
