<svg width="94" height="112" viewBox="0 0 94 112" fill="none" xmlns="http://www.w3.org/2000/svg">
<path d="M81.9094 111.497C88.8198 111.497 93.5163 105.945 93.5163 97.6829V14.1141C93.518 5.85168 88.8215 0.300034 81.906 0.300034C79.2645 0.300034 76.476 1.11968 73.6757 2.73532L7.8941 44.5966C3.03197 47.4003 0.278955 51.4445 0.278955 55.9044C0.278955 60.3643 3.01676 64.4 7.9955 67.2764L73.5557 108.987C76.4811 110.677 79.2662 111.497 81.9094 111.497ZM81.906 7.06172C86.2374 7.06172 86.7563 11.9948 86.7563 14.1158V97.6846C86.7563 99.8055 86.2358 104.739 81.9094 104.739C80.4898 104.739 78.7947 104.21 77.0591 103.209L11.5073 61.5C8.62587 59.8337 7.03558 57.8209 7.03558 55.9078C7.03558 53.9896 8.61911 51.9735 11.384 50.3781L77.1824 8.51681C78.7947 7.59069 80.4864 7.06172 81.906 7.06172Z" fill="black"/>
<path d="M48.3122 77.7933C48.875 77.7933 49.4225 77.5161 49.7453 77.0024C50.2422 76.2131 50.0039 75.1704 49.2163 74.6719L48.3037 74.0973C47.5128 73.6021 46.4701 73.8387 45.9732 74.6262C45.4747 75.4155 45.713 76.4582 46.5022 76.9567L47.4148 77.5313C47.6953 77.7105 48.0046 77.7933 48.3122 77.7933Z" fill="black"/>
<path d="M73.069 93.3649C73.6317 93.3649 74.1793 93.0844 74.5021 92.5723C74.999 91.7831 74.7607 90.7404 73.9714 90.2418L55.0046 78.3104C54.2153 77.8169 53.1726 78.0502 52.6741 78.8394C52.1772 79.6286 52.4155 80.6747 53.2047 81.1699L72.1716 93.103C72.4521 93.2804 72.7648 93.3649 73.069 93.3649Z" fill="black"/>
</svg>
