<svg width="94" height="112" viewBox="0 0 94 112" fill="none" xmlns="http://www.w3.org/2000/svg">
<path d="M11.8859 111.497C4.97546 111.497 0.27895 105.945 0.27895 97.6829V14.1141C0.27726 5.85168 4.97377 0.300034 11.8893 0.300034C14.5307 0.300034 17.3192 1.11968 20.1196 2.73532L85.9011 44.5966C90.7633 47.4003 93.5163 51.4445 93.5163 55.9044C93.5163 60.3643 90.7785 64.4 85.7997 67.2764L20.2395 108.987C17.3142 110.677 14.529 111.497 11.8859 111.497ZM11.8893 7.06172C7.55778 7.06172 7.03895 11.9948 7.03895 14.1158V97.6846C7.03895 99.8055 7.55947 104.739 11.8859 104.739C13.3055 104.739 15.0005 104.21 16.7362 103.209L82.2879 61.5C85.1694 59.8337 86.7597 57.8209 86.7597 55.9078C86.7597 53.9896 85.1761 51.9735 82.4113 50.3781L16.6128 8.51681C15.0005 7.59069 13.3089 7.06172 11.8893 7.06172Z" fill="black"/>
<path d="M45.483 77.7933C44.9203 77.7933 44.3727 77.5161 44.0499 77.0024C43.5531 76.2131 43.7914 75.1704 44.5789 74.6719L45.4915 74.0973C46.2824 73.6021 47.3251 73.8387 47.822 74.6262C48.3206 75.4155 48.0823 76.4582 47.293 76.9567L46.3804 77.5313C46.0999 77.7105 45.7906 77.7933 45.483 77.7933Z" fill="black"/>
<path d="M20.7263 93.3649C20.1635 93.3649 19.6159 93.0844 19.2931 92.5723C18.7963 91.7831 19.0346 90.7404 19.8238 90.2418L38.7907 78.3104C39.5799 77.8169 40.6226 78.0502 41.1212 78.8394C41.618 79.6286 41.3797 80.6747 40.5905 81.1699L21.6236 93.103C21.3431 93.2804 21.0305 93.3649 20.7263 93.3649Z" fill="black"/>
</svg>
